{
  "accessors": [
    {
      "bufferView": 2,
      "componentType": 5126,
      "count": 65532,
      "max": [
        25.25778579711914,
        21.608407974243164,
        20.746761322021484
      ],
      "min": [
        -25.25779914855957,
        -22.37664794921875,
        -5.7740302085876465
      ],
      "type": "VEC3"
    },
    {
      "bufferView": 2,
      "byteOffset": 786384,
      "componentType": 5126,
      "count": 65532,
      "max": [
        0.9999982118606567,
        1.0,
        0.9999988079071045
      ],
      "min": [
        -0.9999313950538635,
        -1.0,
        -0.9999570250511169
      ],
      "type": "VEC3"
    },
    {
      "bufferView": 1,
      "componentType": 5126,
      "count": 65532,
      "max": [
        0.997546374797821,
        0.9953670501708984
      ],
      "min": [
        0.0024430309422314167,
        0.0024429543409496546
      ],
      "type": "VEC2"
    },
    {
      "bufferView": 0,
      "componentType": 5125,
      "count": 315672,
      "type": "SCALAR"
    },
    {
      "bufferView": 2,
      "byteOffset": 1572768,
      "componentType": 5126,
      "count": 16099,
      "max": [
        21.97663116455078,
        20.190082550048828,
        16.150609970092773
      ],
      "min": [
        -21.970378875732422,
        2.304029941558838,
        -5.7740302085876465
      ],
      "type": "VEC3"
    },
    {
      "bufferView": 2,
      "byteOffset": 1765956,
      "componentType": 5126,
      "count": 16099,
      "max": [
        0.9999935626983643,
        0.9998160600662231,
        0.9999988079071045
      ],
      "min": [
        -0.9999982118606567,
        -0.9563851952552795,
        -0.9997944235801697
      ],
      "type": "VEC3"
    },
    {
      "bufferView": 1,
      "byteOffset": 524256,
      "componentType": 5126,
      "count": 16099,
      "max": [
        0.9975569248199463,
        0.960874080657959
      ],
      "min": [
        0.0031672532204538584,
        0.002443034201860428
      ],
      "type": "VEC2"
    },
    {
      "bufferView": 0,
      "byteOffset": 1262688,
      "componentType": 5125,
      "count": 73806,
      "type": "SCALAR"
    }
  ],
  "asset": {
    "extras": {
      "author": "Angry_Filin (https://sketchfab.com/angry_filin)",
      "license": "CC-BY-4.0 (http://creativecommons.org/licenses/by/4.0/)",
      "source": "https://sketchfab.com/3d-models/witcher-medallion-745f5cf41df1421ab7ec12c417f288cf",
      "title": "Witcher Medallion"
    },
    "generator": "Sketchfab-15.30.0",
    "version": "2.0"
  },
  "bufferViews": [
    {
      "buffer": 0,
      "byteLength": 1557912,
      "name": "floatBufferViews",
      "target": 34963
    },
    {
      "buffer": 0,
      "byteLength": 653048,
      "byteOffset": 1557912,
      "byteStride": 8,
      "name": "floatBufferViews",
      "target": 34962
    },
    {
      "buffer": 0,
      "byteLength": 1959144,
      "byteOffset": 2210960,
      "byteStride": 12,
      "name": "floatBufferViews",
      "target": 34962
    }
  ],
  "buffers": [
    {
      "byteLength": 4170104,
      "uri": "scene.bin"
    }
  ],
  "extensionsUsed": [
    "KHR_materials_specular"
  ],
  "images": [
    {
      "uri": "textures/Material.001_baseColor.png"
    },
    {
      "uri": "textures/Material.001_metallicRoughness.png"
    },
    {
      "uri": "textures/Material.001_specularf0.png"
    }
  ],
  "materials": [
    {
      "doubleSided": true,
      "extensions": {
        "KHR_materials_specular": {
          "specularColorFactor": [
            1.0,
            1.0,
            1.0
          ],
          "specularFactor": 1.0,
          "specularTexture": {
            "index": 2
          }
        }
      },
      "name": "Material.001",
      "pbrMetallicRoughness": {
        "baseColorTexture": {
          "index": 0
        },
        "metallicRoughnessTexture": {
          "index": 1
        }
      }
    }
  ],
  "meshes": [
    {
      "name": "Witcher medalion_Material.001_0",
      "primitives": [
        {
          "attributes": {
            "NORMAL": 1,
            "POSITION": 0,
            "TEXCOORD_0": 2
          },
          "indices": 3,
          "material": 0,
          "mode": 4
        }
      ]
    },
    {
      "name": "Witcher medalion_Material.001_0",
      "primitives": [
        {
          "attributes": {
            "NORMAL": 5,
            "POSITION": 4,
            "TEXCOORD_0": 6
          },
          "indices": 7,
          "material": 0,
          "mode": 4
        }
      ]
    }
  ],
  "nodes": [
    {
      "children": [
        1
      ],
      "matrix": [
        7.396036923795884e-18,
        -0.033308789134025574,
        -7.396036923795884e-18,
        0.0,
        0.0,
        7.396036923795884e-18,
        -0.033308789134025574,
        0.0,
        0.033308789134025574,
        7.396036923795884e-18,
        1.642250096755201e-33,
        0.0,
        0.0,
        0.0,
        0.0,
        1.0
      ],
      "name": "Sketchfab_model"
    },
    {
      "children": [
        2
      ],
      "matrix": [
        0.009999999776482582,
        0.0,
        0.0,
        0.0,
        0.0,
        0.0,
        0.009999999776482582,
        0.0,
        0.0,
        -0.009999999776482582,
        0.0,
        0.0,
        0.0,
        0.0,
        0.0,
        1.0
      ],
      "name": "4c794e08a72446369a878cd48dd2bd91.fbx"
    },
    {
      "children": [
        3
      ],
      "name": "RootNode"
    },
    {
      "children": [
        4,
        5
      ],
      "matrix": [
        6.175416655809953e-07,
        -9.081166223664258e-16,
        -8.179587364196754,
        0.0,
        -8.179587364196747,
        -3.5754113383156654e-07,
        -6.175416651269371e-07,
        0.0,
        -3.5754113383156654e-07,
        8.17958736419677,
        -2.9059731915725626e-14,
        0.0,
        0.0,
        47.31463623046875,
        0.0,
        1.0
      ],
      "name": "Witcher medalion"
    },
    {
      "mesh": 0,
      "name": "Witcher medalion_Material.001_0"
    },
    {
      "mesh": 1,
      "name": "Witcher medalion_Material.001_0"
    }
  ],
  "samplers": [
    {
      "magFilter": 9729,
      "minFilter": 9987,
      "wrapS": 10497,
      "wrapT": 10497
    }
  ],
  "scene": 0,
  "scenes": [
    {
      "name": "Sketchfab_Scene",
      "nodes": [
        0
      ]
    }
  ],
  "textures": [
    {
      "sampler": 0,
      "source": 0
    },
    {
      "sampler": 0,
      "source": 1
    },
    {
      "sampler": 0,
      "source": 2
    }
  ]
}
